<svg width="244" height="56" viewBox="0 0 244 56" fill="none" xmlns="http://www.w3.org/2000/svg">
<path opacity="0.4" d="M14.2188 32.4219H5.73438V26.0703H14.2188C15.375 26.0703 16.3125 25.875 17.0312 25.4844C17.75 25.0938 18.2734 24.5547 18.6016 23.8672C18.9453 23.1641 19.1172 22.375 19.1172 21.5C19.1172 20.5625 18.9453 19.6953 18.6016 18.8984C18.2734 18.1016 17.75 17.4609 17.0312 16.9766C16.3125 16.4766 15.375 16.2266 14.2188 16.2266H8.82812V44H0.601562V9.875H14.2188C16.9531 9.875 19.3047 10.375 21.2734 11.375C23.2578 12.375 24.7812 13.75 25.8438 15.5C26.9062 17.2344 27.4375 19.2188 27.4375 21.4531C27.4375 23.6562 26.9062 25.5781 25.8438 27.2188C24.7812 28.8594 23.2578 30.1406 21.2734 31.0625C19.3047 31.9688 16.9531 32.4219 14.2188 32.4219ZM28.9872 9.875H42.4169C45.0419 9.875 47.3231 10.2656 49.2606 11.0469C51.1981 11.8281 52.6903 12.9844 53.7372 14.5156C54.7997 16.0469 55.3309 17.9375 55.3309 20.1875C55.3309 22.1406 55.0262 23.7734 54.4169 25.0859C53.8075 26.3984 52.9559 27.4844 51.8622 28.3438C50.7841 29.1875 49.5262 29.8828 48.0887 30.4297L45.3934 31.9531H34.12L34.0731 25.6016H42.4169C43.4637 25.6016 44.3309 25.4141 45.0184 25.0391C45.7059 24.6641 46.2216 24.1328 46.5653 23.4453C46.9247 22.7422 47.1044 21.9062 47.1044 20.9375C47.1044 19.9531 46.9247 19.1094 46.5653 18.4062C46.2059 17.7031 45.6747 17.1641 44.9716 16.7891C44.2841 16.4141 43.4325 16.2266 42.4169 16.2266H37.2137V44H28.9872V9.875ZM47.6669 44L40.12 28.9062L48.8387 28.8594L56.4794 43.6484V44H47.6669ZM86.2947 26.2578V27.6406C86.2947 30.25 85.9275 32.5938 85.1931 34.6719C84.4744 36.7344 83.4509 38.5 82.1228 39.9688C80.7947 41.4219 79.2244 42.5391 77.4119 43.3203C75.5994 44.0859 73.5994 44.4688 71.4119 44.4688C69.2087 44.4688 67.1931 44.0859 65.365 43.3203C63.5525 42.5391 61.9744 41.4219 60.6306 39.9688C59.3025 38.5 58.2712 36.7344 57.5369 34.6719C56.8181 32.5938 56.4587 30.25 56.4587 27.6406V26.2578C56.4587 23.6484 56.8181 21.3047 57.5369 19.2266C58.2712 17.1484 59.2947 15.3828 60.6072 13.9297C61.9353 12.4609 63.5056 11.3438 65.3181 10.5781C67.1462 9.79688 69.1619 9.40625 71.365 9.40625C73.5525 9.40625 75.5525 9.79688 77.365 10.5781C79.1931 11.3438 80.7712 12.4609 82.0994 13.9297C83.4275 15.3828 84.4587 17.1484 85.1931 19.2266C85.9275 21.3047 86.2947 23.6484 86.2947 26.2578ZM77.9509 27.6406V26.2109C77.9509 24.5234 77.8025 23.0391 77.5056 21.7578C77.2244 20.4609 76.8025 19.375 76.24 18.5C75.6775 17.625 74.9822 16.9688 74.1541 16.5312C73.3416 16.0781 72.4119 15.8516 71.365 15.8516C70.2712 15.8516 69.3181 16.0781 68.5056 16.5312C67.6931 16.9688 67.0134 17.625 66.4666 18.5C65.9197 19.375 65.5056 20.4609 65.2244 21.7578C64.9587 23.0391 64.8259 24.5234 64.8259 26.2109V27.6406C64.8259 29.3125 64.9587 30.7969 65.2244 32.0938C65.5056 33.375 65.9197 34.4609 66.4666 35.3516C67.0291 36.2422 67.7166 36.9141 68.5291 37.3672C69.3572 37.8203 70.3181 38.0469 71.4119 38.0469C72.4587 38.0469 73.3884 37.8203 74.2009 37.3672C75.0134 36.9141 75.6931 36.2422 76.24 35.3516C76.8025 34.4609 77.2244 33.375 77.5056 32.0938C77.8025 30.7969 77.9509 29.3125 77.9509 27.6406ZM91.7584 9.875H98.4616L106.079 33.6172L113.696 9.875H120.399L108.798 44H103.36L91.7584 9.875ZM87.6803 9.875H94.6178L95.9069 36.0312V44H87.6803V9.875ZM117.54 9.875H124.501V44H116.251V36.0312L117.54 9.875ZM155.769 26.2578V27.6406C155.769 30.25 155.402 32.5938 154.667 34.6719C153.949 36.7344 152.925 38.5 151.597 39.9688C150.269 41.4219 148.699 42.5391 146.886 43.3203C145.074 44.0859 143.074 44.4688 140.886 44.4688C138.683 44.4688 136.667 44.0859 134.839 43.3203C133.027 42.5391 131.449 41.4219 130.105 39.9688C128.777 38.5 127.746 36.7344 127.011 34.6719C126.292 32.5938 125.933 30.25 125.933 27.6406V26.2578C125.933 23.6484 126.292 21.3047 127.011 19.2266C127.746 17.1484 128.769 15.3828 130.082 13.9297C131.41 12.4609 132.98 11.3438 134.792 10.5781C136.621 9.79688 138.636 9.40625 140.839 9.40625C143.027 9.40625 145.027 9.79688 146.839 10.5781C148.667 11.3438 150.246 12.4609 151.574 13.9297C152.902 15.3828 153.933 17.1484 154.667 19.2266C155.402 21.3047 155.769 23.6484 155.769 26.2578ZM147.425 27.6406V26.2109C147.425 24.5234 147.277 23.0391 146.98 21.7578C146.699 20.4609 146.277 19.375 145.714 18.5C145.152 17.625 144.457 16.9688 143.628 16.5312C142.816 16.0781 141.886 15.8516 140.839 15.8516C139.746 15.8516 138.792 16.0781 137.98 16.5312C137.167 16.9688 136.488 17.625 135.941 18.5C135.394 19.375 134.98 20.4609 134.699 21.7578C134.433 23.0391 134.3 24.5234 134.3 26.2109V27.6406C134.3 29.3125 134.433 30.7969 134.699 32.0938C134.98 33.375 135.394 34.4609 135.941 35.3516C136.503 36.2422 137.191 36.9141 138.003 37.3672C138.832 37.8203 139.792 38.0469 140.886 38.0469C141.933 38.0469 142.863 37.8203 143.675 37.3672C144.488 36.9141 145.167 36.2422 145.714 35.3516C146.277 34.4609 146.699 33.375 146.98 32.0938C147.277 30.7969 147.425 29.3125 147.425 27.6406ZM176.561 32.4453H184.764C184.655 34.8203 184.014 36.9141 182.842 38.7266C181.67 40.5391 180.045 41.9531 177.967 42.9688C175.905 43.9688 173.467 44.4688 170.655 44.4688C168.373 44.4688 166.334 44.0859 164.538 43.3203C162.756 42.5547 161.241 41.4531 159.991 40.0156C158.756 38.5781 157.811 36.8359 157.155 34.7891C156.514 32.7422 156.194 30.4375 156.194 27.875V26.0234C156.194 23.4609 156.53 21.1562 157.202 19.1094C157.889 17.0469 158.858 15.2969 160.108 13.8594C161.373 12.4062 162.889 11.2969 164.655 10.5312C166.42 9.76562 168.381 9.38281 170.538 9.38281C173.506 9.38281 176.014 9.91406 178.061 10.9766C180.108 12.0391 181.694 13.5 182.819 15.3594C183.944 17.2031 184.608 19.3047 184.811 21.6641H176.608C176.577 20.3828 176.358 19.3125 175.952 18.4531C175.545 17.5781 174.905 16.9219 174.03 16.4844C173.155 16.0469 171.991 15.8281 170.538 15.8281C169.522 15.8281 168.639 16.0156 167.889 16.3906C167.139 16.7656 166.514 17.3594 166.014 18.1719C165.514 18.9844 165.139 20.0391 164.889 21.3359C164.655 22.6172 164.538 24.1641 164.538 25.9766V27.875C164.538 29.6875 164.647 31.2344 164.866 32.5156C165.084 33.7969 165.436 34.8438 165.92 35.6562C166.405 36.4688 167.03 37.0703 167.795 37.4609C168.577 37.8359 169.53 38.0234 170.655 38.0234C171.905 38.0234 172.959 37.8281 173.819 37.4375C174.678 37.0312 175.342 36.4219 175.811 35.6094C176.28 34.7812 176.53 33.7266 176.561 32.4453ZM167.725 43.7656H173.748L173.491 45.1953C174.366 45.3516 175.17 45.7266 175.905 46.3203C176.639 46.9297 177.006 47.9062 177.006 49.25C177.006 50.125 176.819 50.9141 176.444 51.6172C176.069 52.3359 175.514 52.9531 174.78 53.4688C174.045 53.9844 173.131 54.375 172.038 54.6406C170.944 54.9219 169.678 55.0625 168.241 55.0625L168.077 50.7031C168.483 50.7031 168.842 50.6406 169.155 50.5156C169.467 50.3906 169.709 50.1953 169.881 49.9297C170.069 49.6641 170.163 49.3203 170.163 48.8984C170.163 48.4922 170.053 48.1719 169.834 47.9375C169.631 47.7188 169.295 47.5469 168.827 47.4219C168.358 47.3125 167.748 47.2344 166.998 47.1875L167.725 43.7656ZM200.236 17.0469L191.915 44H183.079L195.618 9.875H201.22L200.236 17.0469ZM207.126 44L198.783 17.0469L197.704 9.875H203.376L215.986 44H207.126ZM206.798 31.2734V37.625H189.29V31.2734H206.798ZM204.243 0.6875L208.603 0.945312C208.603 2.08594 208.368 3.14063 207.9 4.10938C207.447 5.07812 206.814 5.85938 206.001 6.45312C205.189 7.04687 204.251 7.34375 203.189 7.34375C202.47 7.34375 201.829 7.25 201.267 7.0625C200.72 6.85937 200.204 6.625 199.72 6.35938C199.251 6.09375 198.767 5.86719 198.267 5.67969C197.783 5.47656 197.243 5.375 196.65 5.375C196.165 5.375 195.743 5.54687 195.384 5.89062C195.04 6.23438 194.868 6.76562 194.868 7.48438L190.462 7.25C190.462 6.14063 190.689 5.10156 191.142 4.13281C191.611 3.14844 192.251 2.35937 193.064 1.76562C193.876 1.15625 194.814 0.851562 195.876 0.851562C196.486 0.851562 197.064 0.953125 197.611 1.15625C198.158 1.34375 198.689 1.57031 199.204 1.83594C199.72 2.08594 200.236 2.3125 200.751 2.51562C201.283 2.70312 201.829 2.79688 202.392 2.79688C202.892 2.79688 203.322 2.625 203.681 2.28125C204.056 1.9375 204.243 1.40625 204.243 0.6875ZM243.973 26.2578V27.6406C243.973 30.25 243.606 32.5938 242.871 34.6719C242.152 36.7344 241.129 38.5 239.801 39.9688C238.473 41.4219 236.902 42.5391 235.09 43.3203C233.277 44.0859 231.277 44.4688 229.09 44.4688C226.887 44.4688 224.871 44.0859 223.043 43.3203C221.231 42.5391 219.652 41.4219 218.309 39.9688C216.981 38.5 215.949 36.7344 215.215 34.6719C214.496 32.5938 214.137 30.25 214.137 27.6406V26.2578C214.137 23.6484 214.496 21.3047 215.215 19.2266C215.949 17.1484 216.973 15.3828 218.285 13.9297C219.613 12.4609 221.184 11.3438 222.996 10.5781C224.824 9.79688 226.84 9.40625 229.043 9.40625C231.231 9.40625 233.231 9.79688 235.043 10.5781C236.871 11.3438 238.449 12.4609 239.777 13.9297C241.106 15.3828 242.137 17.1484 242.871 19.2266C243.606 21.3047 243.973 23.6484 243.973 26.2578ZM235.629 27.6406V26.2109C235.629 24.5234 235.481 23.0391 235.184 21.7578C234.902 20.4609 234.481 19.375 233.918 18.5C233.356 17.625 232.66 16.9688 231.832 16.5312C231.02 16.0781 230.09 15.8516 229.043 15.8516C227.949 15.8516 226.996 16.0781 226.184 16.5312C225.371 16.9688 224.692 17.625 224.145 18.5C223.598 19.375 223.184 20.4609 222.902 21.7578C222.637 23.0391 222.504 24.5234 222.504 26.2109V27.6406C222.504 29.3125 222.637 30.7969 222.902 32.0938C223.184 33.375 223.598 34.4609 224.145 35.3516C224.707 36.2422 225.395 36.9141 226.207 37.3672C227.035 37.8203 227.996 38.0469 229.09 38.0469C230.137 38.0469 231.067 37.8203 231.879 37.3672C232.692 36.9141 233.371 36.2422 233.918 35.3516C234.481 34.4609 234.902 33.375 235.184 32.0938C235.481 30.7969 235.629 29.3125 235.629 27.6406Z" fill="white"/>
</svg>
