<svg width="325" height="73" viewBox="0 0 325 73" fill="none" xmlns="http://www.w3.org/2000/svg">
<path opacity="0.4" d="M18.625 42.5625H7.3125V34.0938H18.625C20.1667 34.0938 21.4167 33.8333 22.375 33.3125C23.3333 32.7917 24.0312 32.0729 24.4688 31.1562C24.9271 30.2188 25.1562 29.1667 25.1562 28C25.1562 26.75 24.9271 25.5938 24.4688 24.5312C24.0312 23.4688 23.3333 22.6146 22.375 21.9688C21.4167 21.3021 20.1667 20.9688 18.625 20.9688H11.4375V58H0.46875V12.5H18.625C22.2708 12.5 25.4062 13.1667 28.0312 14.5C30.6771 15.8333 32.7083 17.6667 34.125 20C35.5417 22.3125 36.25 24.9583 36.25 27.9375C36.25 30.875 35.5417 33.4375 34.125 35.625C32.7083 37.8125 30.6771 39.5208 28.0312 40.75C25.4062 41.9583 22.2708 42.5625 18.625 42.5625ZM38.3162 12.5H56.2225C59.7225 12.5 62.7642 13.0208 65.3475 14.0625C67.9308 15.1042 69.9204 16.6458 71.3162 18.6875C72.7329 20.7292 73.4412 23.25 73.4412 26.25C73.4412 28.8542 73.035 31.0312 72.2225 32.7812C71.41 34.5312 70.2746 35.9792 68.8162 37.125C67.3787 38.25 65.7017 39.1771 63.785 39.9062L60.1912 41.9375H45.16L45.0975 33.4688H56.2225C57.6183 33.4688 58.7746 33.2188 59.6912 32.7188C60.6079 32.2188 61.2954 31.5104 61.7537 30.5938C62.2329 29.6562 62.4725 28.5417 62.4725 27.25C62.4725 25.9375 62.2329 24.8125 61.7537 23.875C61.2746 22.9375 60.5662 22.2188 59.6287 21.7188C58.7121 21.2188 57.5767 20.9688 56.2225 20.9688H49.285V58H38.3162V12.5ZM63.2225 58L53.16 37.875L64.785 37.8125L74.9725 57.5312V58H63.2225ZM114.726 34.3438V36.1875C114.726 39.6667 114.237 42.7917 113.257 45.5625C112.299 48.3125 110.935 50.6667 109.164 52.625C107.393 54.5625 105.299 56.0521 102.882 57.0938C100.466 58.1146 97.7992 58.625 94.8825 58.625C91.945 58.625 89.2575 58.1146 86.82 57.0938C84.4033 56.0521 82.2992 54.5625 80.5075 52.625C78.7367 50.6667 77.3617 48.3125 76.3825 45.5625C75.4242 42.7917 74.945 39.6667 74.945 36.1875V34.3438C74.945 30.8646 75.4242 27.7396 76.3825 24.9688C77.3617 22.1979 78.7262 19.8438 80.4762 17.9062C82.2471 15.9479 84.3408 14.4583 86.7575 13.4375C89.195 12.3958 91.8825 11.875 94.82 11.875C97.7367 11.875 100.403 12.3958 102.82 13.4375C105.257 14.4583 107.362 15.9479 109.132 17.9062C110.903 19.8438 112.278 22.1979 113.257 24.9688C114.237 27.7396 114.726 30.8646 114.726 34.3438ZM103.601 36.1875V34.2812C103.601 32.0312 103.403 30.0521 103.007 28.3438C102.632 26.6146 102.07 25.1667 101.32 24C100.57 22.8333 99.6429 21.9583 98.5387 21.375C97.4554 20.7708 96.2158 20.4688 94.82 20.4688C93.3617 20.4688 92.0908 20.7708 91.0075 21.375C89.9242 21.9583 89.0179 22.8333 88.2887 24C87.5596 25.1667 87.0075 26.6146 86.6325 28.3438C86.2783 30.0521 86.1012 32.0312 86.1012 34.2812V36.1875C86.1012 38.4167 86.2783 40.3958 86.6325 42.125C87.0075 43.8333 87.5596 45.2812 88.2887 46.4688C89.0387 47.6562 89.9554 48.5521 91.0387 49.1562C92.1429 49.7604 93.4242 50.0625 94.8825 50.0625C96.2783 50.0625 97.5179 49.7604 98.6012 49.1562C99.6846 48.5521 100.591 47.6562 101.32 46.4688C102.07 45.2812 102.632 43.8333 103.007 42.125C103.403 40.3958 103.601 38.4167 103.601 36.1875ZM122.011 12.5H130.949L141.105 44.1562L151.261 12.5H160.199L144.73 58H137.48L122.011 12.5ZM116.574 12.5H125.824L127.543 47.375V58H116.574V12.5ZM156.386 12.5H165.668V58H154.668V47.375L156.386 12.5ZM207.359 34.3438V36.1875C207.359 39.6667 206.869 42.7917 205.89 45.5625C204.932 48.3125 203.567 50.6667 201.796 52.625C200.025 54.5625 197.932 56.0521 195.515 57.0938C193.098 58.1146 190.432 58.625 187.515 58.625C184.577 58.625 181.89 58.1146 179.452 57.0938C177.036 56.0521 174.932 54.5625 173.14 52.625C171.369 50.6667 169.994 48.3125 169.015 45.5625C168.057 42.7917 167.577 39.6667 167.577 36.1875V34.3438C167.577 30.8646 168.057 27.7396 169.015 24.9688C169.994 22.1979 171.359 19.8438 173.109 17.9062C174.88 15.9479 176.973 14.4583 179.39 13.4375C181.827 12.3958 184.515 11.875 187.452 11.875C190.369 11.875 193.036 12.3958 195.452 13.4375C197.89 14.4583 199.994 15.9479 201.765 17.9062C203.536 19.8438 204.911 22.1979 205.89 24.9688C206.869 27.7396 207.359 30.8646 207.359 34.3438ZM196.234 36.1875V34.2812C196.234 32.0312 196.036 30.0521 195.64 28.3438C195.265 26.6146 194.702 25.1667 193.952 24C193.202 22.8333 192.275 21.9583 191.171 21.375C190.088 20.7708 188.848 20.4688 187.452 20.4688C185.994 20.4688 184.723 20.7708 183.64 21.375C182.557 21.9583 181.65 22.8333 180.921 24C180.192 25.1667 179.64 26.6146 179.265 28.3438C178.911 30.0521 178.734 32.0312 178.734 34.2812V36.1875C178.734 38.4167 178.911 40.3958 179.265 42.125C179.64 43.8333 180.192 45.2812 180.921 46.4688C181.671 47.6562 182.588 48.5521 183.671 49.1562C184.775 49.7604 186.057 50.0625 187.515 50.0625C188.911 50.0625 190.15 49.7604 191.234 49.1562C192.317 48.5521 193.223 47.6562 193.952 46.4688C194.702 45.2812 195.265 43.8333 195.64 42.125C196.036 40.3958 196.234 38.4167 196.234 36.1875ZM235.081 42.5938H246.019C245.873 45.7604 245.019 48.5521 243.456 50.9688C241.894 53.3854 239.727 55.2708 236.956 56.625C234.206 57.9583 230.956 58.625 227.206 58.625C224.165 58.625 221.446 58.1146 219.05 57.0938C216.675 56.0729 214.654 54.6042 212.988 52.6875C211.342 50.7708 210.081 48.4479 209.206 45.7188C208.352 42.9896 207.925 39.9167 207.925 36.5V34.0312C207.925 30.6146 208.373 27.5417 209.269 24.8125C210.185 22.0625 211.477 19.7292 213.144 17.8125C214.831 15.875 216.852 14.3958 219.206 13.375C221.56 12.3542 224.175 11.8438 227.05 11.8438C231.008 11.8438 234.352 12.5521 237.081 13.9688C239.81 15.3854 241.925 17.3333 243.425 19.8125C244.925 22.2708 245.81 25.0729 246.081 28.2188H235.144C235.102 26.5104 234.81 25.0833 234.269 23.9375C233.727 22.7708 232.873 21.8958 231.706 21.3125C230.54 20.7292 228.988 20.4375 227.05 20.4375C225.696 20.4375 224.519 20.6875 223.519 21.1875C222.519 21.6875 221.685 22.4792 221.019 23.5625C220.352 24.6458 219.852 26.0521 219.519 27.7812C219.206 29.4896 219.05 31.5521 219.05 33.9688V36.5C219.05 38.9167 219.196 40.9792 219.488 42.6875C219.779 44.3958 220.248 45.7917 220.894 46.875C221.54 47.9583 222.373 48.7604 223.394 49.2812C224.435 49.7812 225.706 50.0312 227.206 50.0312C228.873 50.0312 230.279 49.7708 231.425 49.25C232.571 48.7083 233.456 47.8958 234.081 46.8125C234.706 45.7083 235.04 44.3021 235.081 42.5938ZM223.3 57.6875H231.331L230.988 59.5938C232.154 59.8021 233.227 60.3021 234.206 61.0938C235.185 61.9062 235.675 63.2083 235.675 65C235.675 66.1667 235.425 67.2188 234.925 68.1562C234.425 69.1146 233.685 69.9375 232.706 70.625C231.727 71.3125 230.508 71.8333 229.05 72.1875C227.592 72.5625 225.904 72.75 223.988 72.75L223.769 66.9375C224.31 66.9375 224.79 66.8542 225.206 66.6875C225.623 66.5208 225.946 66.2604 226.175 65.9062C226.425 65.5521 226.55 65.0938 226.55 64.5312C226.55 63.9896 226.404 63.5625 226.113 63.25C225.842 62.9583 225.394 62.7292 224.769 62.5625C224.144 62.4167 223.331 62.3125 222.331 62.25L223.3 57.6875ZM266.648 22.0625L255.554 58H243.773L260.491 12.5H267.96L266.648 22.0625ZM275.835 58L264.71 22.0625L263.273 12.5H270.835L287.648 58H275.835ZM275.398 41.0312V49.5H252.054V41.0312H275.398ZM271.991 0.25L277.804 0.59375C277.804 2.11458 277.491 3.52083 276.866 4.8125C276.262 6.10417 275.418 7.14583 274.335 7.9375C273.252 8.72917 272.002 9.125 270.585 9.125C269.627 9.125 268.773 9 268.023 8.75C267.293 8.47917 266.606 8.16667 265.96 7.8125C265.335 7.45833 264.689 7.15625 264.023 6.90625C263.377 6.63542 262.658 6.5 261.866 6.5C261.22 6.5 260.658 6.72917 260.179 7.1875C259.72 7.64583 259.491 8.35417 259.491 9.3125L253.616 9C253.616 7.52083 253.918 6.13542 254.523 4.84375C255.148 3.53125 256.002 2.47917 257.085 1.6875C258.168 0.875 259.418 0.46875 260.835 0.46875C261.648 0.46875 262.418 0.604167 263.148 0.875C263.877 1.125 264.585 1.42708 265.273 1.78125C265.96 2.11458 266.648 2.41667 267.335 2.6875C268.043 2.9375 268.773 3.0625 269.523 3.0625C270.189 3.0625 270.762 2.83333 271.241 2.375C271.741 1.91667 271.991 1.20833 271.991 0.25ZM324.964 34.3438V36.1875C324.964 39.6667 324.474 42.7917 323.495 45.5625C322.537 48.3125 321.172 50.6667 319.401 52.625C317.63 54.5625 315.537 56.0521 313.12 57.0938C310.703 58.1146 308.037 58.625 305.12 58.625C302.182 58.625 299.495 58.1146 297.057 57.0938C294.641 56.0521 292.537 54.5625 290.745 52.625C288.974 50.6667 287.599 48.3125 286.62 45.5625C285.662 42.7917 285.182 39.6667 285.182 36.1875V34.3438C285.182 30.8646 285.662 27.7396 286.62 24.9688C287.599 22.1979 288.964 19.8438 290.714 17.9062C292.485 15.9479 294.578 14.4583 296.995 13.4375C299.432 12.3958 302.12 11.875 305.057 11.875C307.974 11.875 310.641 12.3958 313.057 13.4375C315.495 14.4583 317.599 15.9479 319.37 17.9062C321.141 19.8438 322.516 22.1979 323.495 24.9688C324.474 27.7396 324.964 30.8646 324.964 34.3438ZM313.839 36.1875V34.2812C313.839 32.0312 313.641 30.0521 313.245 28.3438C312.87 26.6146 312.307 25.1667 311.557 24C310.807 22.8333 309.88 21.9583 308.776 21.375C307.693 20.7708 306.453 20.4688 305.057 20.4688C303.599 20.4688 302.328 20.7708 301.245 21.375C300.162 21.9583 299.255 22.8333 298.526 24C297.797 25.1667 297.245 26.6146 296.87 28.3438C296.516 30.0521 296.339 32.0312 296.339 34.2812V36.1875C296.339 38.4167 296.516 40.3958 296.87 42.125C297.245 43.8333 297.797 45.2812 298.526 46.4688C299.276 47.6562 300.193 48.5521 301.276 49.1562C302.38 49.7604 303.662 50.0625 305.12 50.0625C306.516 50.0625 307.755 49.7604 308.839 49.1562C309.922 48.5521 310.828 47.6562 311.557 46.4688C312.307 45.2812 312.87 43.8333 313.245 42.125C313.641 40.3958 313.839 38.4167 313.839 36.1875Z" fill="white"/>
</svg>
