<svg width="174" height="39" viewBox="0 0 174 39" fill="none" xmlns="http://www.w3.org/2000/svg">
<path opacity="0.4" d="M6.65332 22.7988V31H0.826172V6.82812H10.4717C12.32 6.82812 13.9525 7.17122 15.3691 7.85742C16.7969 8.53255 17.8981 9.50098 18.6729 10.7627C19.4587 12.0133 19.8516 13.4355 19.8516 15.0293C19.8516 17.3867 19.0049 19.2738 17.3115 20.6904C15.6292 22.096 13.3161 22.7988 10.3721 22.7988H6.65332ZM6.65332 18.2998H10.4717C11.6006 18.2998 12.4583 18.0176 13.0449 17.4531C13.6426 16.8887 13.9414 16.0918 13.9414 15.0625C13.9414 13.9336 13.637 13.0316 13.0283 12.3564C12.4196 11.6813 11.5895 11.3382 10.5381 11.3271H6.65332V18.2998ZM29.9141 22.4668H26.7598V31H20.9327V6.82812H30.4454C33.3119 6.82812 35.5531 7.46452 37.169 8.7373C38.7849 10.0101 39.5928 11.8086 39.5928 14.1328C39.5928 15.8151 39.2497 17.2096 38.5635 18.3164C37.8884 19.4232 36.8259 20.3197 35.376 21.0059L40.4229 30.751V31H34.1807L29.9141 22.4668ZM26.7598 17.9678H30.4454C31.5521 17.9678 32.3822 17.68 32.9356 17.1045C33.5 16.5179 33.7823 15.7044 33.7823 14.6641C33.7823 13.6237 33.5 12.8102 32.9356 12.2236C32.3711 11.626 31.5411 11.3271 30.4454 11.3271H26.7598V17.9678ZM61.5421 19.4121C61.5421 21.7695 61.1049 23.8558 60.2305 25.6709C59.3562 27.486 58.1111 28.8861 56.4952 29.8711C54.8904 30.8451 53.0587 31.332 51.0001 31.332C48.9415 31.332 47.1153 30.8617 45.5216 29.9209C43.9278 28.9691 42.6827 27.6133 41.7862 25.8535C40.9008 24.0938 40.4359 22.0739 40.3917 19.7939V18.4326C40.3917 16.0641 40.8233 13.9779 41.6866 12.1738C42.5609 10.3587 43.8061 8.95866 45.422 7.97363C47.0489 6.98861 48.8972 6.49609 50.9669 6.49609C53.0144 6.49609 54.8406 6.98307 56.4454 7.95703C58.0502 8.93099 59.2953 10.32 60.1807 12.124C61.0772 13.917 61.531 15.9756 61.5421 18.2998V19.4121ZM55.6153 18.3994C55.6153 15.9977 55.2113 14.1771 54.4034 12.9375C53.6065 11.6868 52.461 11.0615 50.9669 11.0615C48.045 11.0615 46.5011 13.2529 46.335 17.6357L46.3184 19.4121C46.3184 21.7806 46.7113 23.6012 47.4971 24.874C48.283 26.1468 49.4506 26.7832 51.0001 26.7832C52.4721 26.7832 53.6065 26.1579 54.4034 24.9072C55.2003 23.6566 55.6042 21.8581 55.6153 19.5117V18.3994ZM70.1603 6.82812L75.5558 23.6455L80.9347 6.82812H88.6046V31H82.7609V25.3555L83.3253 13.8008L77.4816 31H73.63L67.7696 13.7842L68.3341 25.3555V31H62.507V6.82812H70.1603ZM110.753 19.4121C110.753 21.7695 110.316 23.8558 109.442 25.6709C108.567 27.486 107.322 28.8861 105.706 29.8711C104.101 30.8451 102.27 31.332 100.211 31.332C98.1525 31.332 96.3263 30.8617 94.7326 29.9209C93.1388 28.9691 91.8937 27.6133 90.9972 25.8535C90.1118 24.0938 89.647 22.0739 89.6027 19.7939V18.4326C89.6027 16.0641 90.0343 13.9779 90.8976 12.1738C91.772 10.3587 93.0171 8.95866 94.633 7.97363C96.2599 6.98861 98.1082 6.49609 100.178 6.49609C102.225 6.49609 104.052 6.98307 105.656 7.95703C107.261 8.93099 108.506 10.32 109.392 12.124C110.288 13.917 110.742 15.9756 110.753 18.2998V19.4121ZM104.826 18.3994C104.826 15.9977 104.422 14.1771 103.614 12.9375C102.818 11.6868 101.672 11.0615 100.178 11.0615C97.256 11.0615 95.7121 13.2529 95.5461 17.6357L95.5294 19.4121C95.5294 21.7806 95.9224 23.6012 96.7082 24.874C97.494 26.1468 98.6616 26.7832 100.211 26.7832C101.683 26.7832 102.818 26.1579 103.614 24.9072C104.411 23.6566 104.815 21.8581 104.826 19.5117V18.3994ZM131.275 22.8154C131.197 24.4977 130.743 25.9863 129.913 27.2812C129.083 28.5651 127.916 29.5612 126.41 30.2695C124.916 30.9779 123.206 31.332 121.28 31.332C118.104 31.332 115.603 30.2972 113.777 28.2275C111.95 26.1579 111.037 23.236 111.037 19.4619V18.2666C111.037 15.8981 111.447 13.8285 112.266 12.0576C113.096 10.2757 114.286 8.90332 115.835 7.94043C117.385 6.96647 119.178 6.47949 121.214 6.47949C124.147 6.47949 126.504 7.25423 128.286 8.80371C130.068 10.3421 131.081 12.4671 131.324 15.1787H125.514C125.47 13.7067 125.099 12.6497 124.402 12.0078C123.704 11.3659 122.642 11.0449 121.214 11.0449C119.764 11.0449 118.702 11.5872 118.027 12.6719C117.351 13.7565 116.997 15.4886 116.964 17.8682V19.5781C116.964 22.1569 117.285 23.9997 117.927 25.1064C118.58 26.2132 119.698 26.7666 121.28 26.7666C122.62 26.7666 123.643 26.4512 124.352 25.8203C125.06 25.1895 125.436 24.1878 125.481 22.8154H131.275ZM123.472 30.834L123.306 31.8467C124.966 32.1566 125.796 33.1139 125.796 34.7188C125.796 36.0026 125.248 37.0098 124.153 37.7402C123.057 38.4707 121.535 38.8359 119.587 38.8359L119.471 35.748C120.445 35.748 120.932 35.3219 120.932 34.4697C120.932 34.0492 120.755 33.7559 120.401 33.5898C120.057 33.4238 119.493 33.3132 118.707 33.2578L119.222 30.834H123.472ZM145.72 26.4844H137.735L136.34 31H130.114L138.98 6.82812H144.458L153.39 31H147.131L145.72 26.4844ZM139.129 21.9854H144.325L141.719 13.6016L139.129 21.9854ZM148.177 0.50293C148.177 1.76465 147.806 2.83822 147.065 3.72363C146.334 4.59798 145.427 5.03516 144.342 5.03516C143.612 5.03516 142.798 4.80273 141.902 4.33789C141.005 3.87305 140.28 3.64062 139.727 3.64062C139.373 3.64062 139.068 3.76237 138.814 4.00586C138.57 4.24935 138.448 4.62565 138.448 5.13477L135.344 4.96875C135.344 3.74023 135.709 2.67773 136.44 1.78125C137.181 0.884766 138.089 0.436523 139.162 0.436523C139.716 0.436523 140.441 0.641276 141.337 1.05078C142.234 1.44922 142.798 1.67611 143.031 1.73145C143.274 1.78678 143.529 1.81445 143.794 1.81445C144.148 1.81445 144.453 1.69271 144.707 1.44922C144.962 1.20573 145.089 0.829427 145.089 0.320312L148.177 0.50293ZM173.231 19.4121C173.231 21.7695 172.794 23.8558 171.919 25.6709C171.045 27.486 169.8 28.8861 168.184 29.8711C166.579 30.8451 164.747 31.332 162.689 31.332C160.63 31.332 158.804 30.8617 157.21 29.9209C155.616 28.9691 154.371 27.6133 153.475 25.8535C152.589 24.0938 152.125 22.0739 152.08 19.7939V18.4326C152.08 16.0641 152.512 13.9779 153.375 12.1738C154.25 10.3587 155.495 8.95866 157.111 7.97363C158.738 6.98861 160.586 6.49609 162.656 6.49609C164.703 6.49609 166.529 6.98307 168.134 7.95703C169.739 8.93099 170.984 10.32 171.869 12.124C172.766 13.917 173.22 15.9756 173.231 18.2998V19.4121ZM167.304 18.3994C167.304 15.9977 166.9 14.1771 166.092 12.9375C165.295 11.6868 164.15 11.0615 162.656 11.0615C159.734 11.0615 158.19 13.2529 158.024 17.6357L158.007 19.4121C158.007 21.7806 158.4 23.6012 159.186 24.874C159.972 26.1468 161.139 26.7832 162.689 26.7832C164.161 26.7832 165.295 26.1579 166.092 24.9072C166.889 23.6566 167.293 21.8581 167.304 19.5117V18.3994Z" fill="white"/>
</svg>
